M48
;DRILL file {KiCad 4.0.3-stable} date Saturday, September 17, 2016 'PMt' 03:06:39 PM
;FORMAT={-:-/ absolute / metric / decimal}
FMAT,2
METRIC,TZ
T1C0.650
T2C1.016
%
G90
G05
M71
T1
X133.32Y-100.14
X133.32Y-102.14
X133.32Y-104.14
X133.32Y-106.14
X133.32Y-108.14
X133.32Y-110.14
X133.32Y-112.14
X133.32Y-114.14
X147.32Y-100.14
X147.32Y-102.14
X147.32Y-104.14
X147.32Y-106.14
X147.32Y-108.14
X147.32Y-110.14
X147.32Y-112.14
X147.32Y-114.14
T2
X124.46Y-98.044
X124.46Y-100.584
X124.46Y-103.124
X124.46Y-105.664
X124.46Y-108.204
X124.46Y-110.744
X124.46Y-113.284
X124.46Y-115.824
X134.112Y-121.92
X136.652Y-121.92
X139.192Y-121.92
X141.732Y-121.92
X144.272Y-121.92
X146.812Y-121.92
X155.956Y-98.044
X155.956Y-100.584
X155.956Y-103.124
X155.956Y-105.664
X155.956Y-108.204
X155.956Y-110.744
X155.956Y-113.284
X155.956Y-115.824
T0
M30
