G04 #@! TF.FileFunction,Copper,L1,Top,Signal*
%FSLAX46Y46*%
G04 Gerber Fmt 4.6, Leading zero omitted, Abs format (unit mm)*
G04 Created by KiCad (PCBNEW 4.0.3-stable) date Saturday, September 17, 2016 'PMt' 03:06:16 PM*
%MOMM*%
%LPD*%
G01*
G04 APERTURE LIST*
%ADD10C,0.100000*%
%ADD11R,1.300000X1.550000*%
%ADD12R,2.032000X1.727200*%
%ADD13O,2.032000X1.727200*%
%ADD14R,1.300000X1.500000*%
%ADD15R,1.500000X1.300000*%
%ADD16R,2.500000X1.100000*%
%ADD17O,2.500000X1.100000*%
%ADD18O,1.100000X2.400000*%
%ADD19R,1.727200X2.032000*%
%ADD20O,1.727200X2.032000*%
%ADD21C,0.250000*%
G04 APERTURE END LIST*
D10*
D11*
X120106000Y-101181000D03*
X120106000Y-109131000D03*
X115606000Y-109131000D03*
X115606000Y-101181000D03*
D12*
X155956000Y-98044000D03*
D13*
X155956000Y-100584000D03*
X155956000Y-103124000D03*
X155956000Y-105664000D03*
X155956000Y-108204000D03*
X155956000Y-110744000D03*
X155956000Y-113284000D03*
X155956000Y-115824000D03*
D12*
X124460000Y-98044000D03*
D13*
X124460000Y-100584000D03*
X124460000Y-103124000D03*
X124460000Y-105664000D03*
X124460000Y-108204000D03*
X124460000Y-110744000D03*
X124460000Y-113284000D03*
X124460000Y-115824000D03*
D14*
X120142000Y-115904000D03*
X120142000Y-113204000D03*
X115824000Y-115904000D03*
X115824000Y-113204000D03*
D15*
X154606000Y-121412000D03*
X157306000Y-121412000D03*
D11*
X160818000Y-116243000D03*
X160818000Y-108293000D03*
X165318000Y-108293000D03*
X165318000Y-116243000D03*
D16*
X132620000Y-100140000D03*
D17*
X132620000Y-102140000D03*
X132620000Y-104140000D03*
X132620000Y-106140000D03*
X132620000Y-108140000D03*
X132620000Y-110140000D03*
X132620000Y-112140000D03*
X132620000Y-114140000D03*
D18*
X135310000Y-115890000D03*
X137310000Y-115890000D03*
X139310000Y-115890000D03*
X141310000Y-115890000D03*
X143310000Y-115890000D03*
X145310000Y-115890000D03*
D17*
X148020000Y-114140000D03*
X147920000Y-112140000D03*
X148020000Y-110140000D03*
X148020000Y-108140000D03*
X148020000Y-106140000D03*
X148020000Y-104140000D03*
X148020000Y-102140000D03*
X148020000Y-100140000D03*
D19*
X146812000Y-121920000D03*
D20*
X144272000Y-121920000D03*
X141732000Y-121920000D03*
X139192000Y-121920000D03*
X136652000Y-121920000D03*
X134112000Y-121920000D03*
D21*
X147320000Y-100140000D02*
X151320000Y-100140000D01*
X151320000Y-100140000D02*
X153416000Y-98044000D01*
X153416000Y-98044000D02*
X155956000Y-98044000D01*
X147320000Y-102140000D02*
X151606000Y-102140000D01*
X151606000Y-102140000D02*
X153162000Y-100584000D01*
X153162000Y-100584000D02*
X155956000Y-100584000D01*
X147320000Y-104140000D02*
X151638000Y-104140000D01*
X151638000Y-104140000D02*
X152654000Y-103124000D01*
X152654000Y-103124000D02*
X155956000Y-103124000D01*
X147320000Y-106140000D02*
X147796000Y-105664000D01*
X147796000Y-105664000D02*
X155956000Y-105664000D01*
X160818000Y-116243000D02*
X160818000Y-118000000D01*
X160818000Y-118000000D02*
X157406000Y-121412000D01*
X157406000Y-121412000D02*
X157306000Y-121412000D01*
X155956000Y-108204000D02*
X160729000Y-108204000D01*
X160729000Y-108204000D02*
X160818000Y-108293000D01*
X147320000Y-108140000D02*
X147384000Y-108204000D01*
X147384000Y-108204000D02*
X155956000Y-108204000D01*
X147320000Y-110140000D02*
X147416000Y-110236000D01*
X155702000Y-110998000D02*
X155956000Y-110744000D01*
X147416000Y-110236000D02*
X151638000Y-110236000D01*
X151638000Y-110236000D02*
X152400000Y-110998000D01*
X152400000Y-110998000D02*
X155702000Y-110998000D01*
X115606000Y-109131000D02*
X115606000Y-101181000D01*
X115606000Y-109131000D02*
X115606000Y-110454000D01*
X115606000Y-110454000D02*
X113792000Y-112268000D01*
X113792000Y-112268000D02*
X113792000Y-117094000D01*
X113792000Y-117094000D02*
X122428000Y-125730000D01*
X156464000Y-125730000D02*
X165318000Y-116876000D01*
X122428000Y-125730000D02*
X156464000Y-125730000D01*
X165318000Y-116876000D02*
X165318000Y-116243000D01*
X157912000Y-115824000D02*
X162560000Y-111176000D01*
X165318000Y-116118000D02*
X162560000Y-113360000D01*
X162560000Y-111176000D02*
X165318000Y-108418000D01*
X165318000Y-116243000D02*
X165318000Y-116118000D01*
X162560000Y-113360000D02*
X162560000Y-111176000D01*
X155956000Y-115824000D02*
X157912000Y-115824000D01*
X165318000Y-108418000D02*
X165318000Y-108293000D01*
X147320000Y-114140000D02*
X151224000Y-114140000D01*
X151224000Y-114140000D02*
X152908000Y-115824000D01*
X152908000Y-115824000D02*
X155956000Y-115824000D01*
X120106000Y-101181000D02*
X120106000Y-109131000D01*
X120106000Y-109131000D02*
X120106000Y-110156000D01*
X120106000Y-110156000D02*
X117058000Y-113204000D01*
X117058000Y-113204000D02*
X116724000Y-113204000D01*
X116724000Y-113204000D02*
X115824000Y-113204000D01*
X121920000Y-98044000D02*
X120106000Y-99858000D01*
X120106000Y-99858000D02*
X120106000Y-101181000D01*
X124460000Y-98044000D02*
X121920000Y-98044000D01*
X124460000Y-98044000D02*
X127254000Y-98044000D01*
X127254000Y-98044000D02*
X129350000Y-100140000D01*
X129350000Y-100140000D02*
X133320000Y-100140000D01*
X124371000Y-98133000D02*
X124460000Y-98044000D01*
X124460000Y-100584000D02*
X128016000Y-100584000D01*
X128016000Y-100584000D02*
X129572000Y-102140000D01*
X129572000Y-102140000D02*
X133320000Y-102140000D01*
X120142000Y-113204000D02*
X120142000Y-112204000D01*
X120142000Y-112204000D02*
X122174000Y-110172000D01*
X122174000Y-105257600D02*
X124307600Y-103124000D01*
X122174000Y-110172000D02*
X122174000Y-105257600D01*
X124307600Y-103124000D02*
X124460000Y-103124000D01*
X124460000Y-103124000D02*
X128016000Y-103124000D01*
X128016000Y-103124000D02*
X129032000Y-104140000D01*
X129032000Y-104140000D02*
X133320000Y-104140000D01*
X124460000Y-105664000D02*
X128524000Y-105664000D01*
X128524000Y-105664000D02*
X129000000Y-106140000D01*
X129000000Y-106140000D02*
X133320000Y-106140000D01*
X124460000Y-108204000D02*
X133256000Y-108204000D01*
X133256000Y-108204000D02*
X133320000Y-108140000D01*
X124460000Y-110744000D02*
X128016000Y-110744000D01*
X128016000Y-110744000D02*
X128524000Y-110236000D01*
X128524000Y-110236000D02*
X133224000Y-110236000D01*
X133224000Y-110236000D02*
X133320000Y-110140000D01*
X124460000Y-113284000D02*
X128016000Y-113284000D01*
X128016000Y-113284000D02*
X129160000Y-112140000D01*
X129160000Y-112140000D02*
X133320000Y-112140000D01*
X120142000Y-115904000D02*
X124380000Y-115904000D01*
X124380000Y-115904000D02*
X124460000Y-115824000D01*
X115824000Y-115904000D02*
X120142000Y-115904000D01*
X154606000Y-121412000D02*
X153606000Y-121412000D01*
X153606000Y-121412000D02*
X150050000Y-124968000D01*
X150050000Y-124968000D02*
X131318000Y-124968000D01*
X131318000Y-124968000D02*
X129794000Y-123444000D01*
X129794000Y-123444000D02*
X129794000Y-117856000D01*
X129794000Y-117856000D02*
X127762000Y-115824000D01*
X127762000Y-115824000D02*
X124460000Y-115824000D01*
X124460000Y-115824000D02*
X128016000Y-115824000D01*
X129700000Y-114140000D02*
X133320000Y-114140000D01*
X128016000Y-115824000D02*
X129700000Y-114140000D01*
X135310000Y-115890000D02*
X135310000Y-118182000D01*
X134112000Y-119380000D02*
X134112000Y-120654000D01*
X135310000Y-118182000D02*
X134112000Y-119380000D01*
X134112000Y-120654000D02*
X134112000Y-121920000D01*
X137310000Y-115890000D02*
X137160000Y-116040000D01*
X137160000Y-116040000D02*
X137160000Y-118872000D01*
X137160000Y-118872000D02*
X136652000Y-119380000D01*
X136652000Y-119380000D02*
X136652000Y-121920000D01*
X139310000Y-115890000D02*
X139192000Y-116008000D01*
X139192000Y-116008000D02*
X139192000Y-121920000D01*
X141310000Y-115890000D02*
X141478000Y-116058000D01*
X141478000Y-116058000D02*
X141478000Y-121666000D01*
X141478000Y-121666000D02*
X141732000Y-121920000D01*
X143310000Y-115890000D02*
X143310000Y-118672000D01*
X143310000Y-118672000D02*
X144272000Y-119634000D01*
X144272000Y-119634000D02*
X144272000Y-121920000D01*
X145310000Y-115890000D02*
X145310000Y-118132000D01*
X145310000Y-118132000D02*
X146812000Y-119634000D01*
X146812000Y-119634000D02*
X146812000Y-120654000D01*
X146812000Y-120654000D02*
X146812000Y-121920000D01*
X146812000Y-121767600D02*
X146812000Y-121920000D01*
X147320000Y-112140000D02*
X151510000Y-112140000D01*
X151510000Y-112140000D02*
X152654000Y-113284000D01*
X152654000Y-113284000D02*
X155956000Y-113284000D01*
M02*
